<?xml version="1.0" encoding="UTF-8" standalone="no"?>
<!DOCTYPE svg PUBLIC "-//W3C//DTD SVG 1.1//EN" "http://www.w3.org/Graphics/SVG/1.1/DTD/svg11.dtd">
<svg width="100%" height="100%" viewBox="0 0 239 102" version="1.1" xmlns="http://www.w3.org/2000/svg" xmlns:xlink="http://www.w3.org/1999/xlink" xml:space="preserve" xmlns:serif="http://www.serif.com/" style="fill-rule:evenodd;clip-rule:evenodd;stroke-linecap:round;stroke-linejoin:round;stroke-miterlimit:1.5;">
    <g transform="matrix(1,0,0,1,-241.542,-271.441)">
        <g transform="matrix(0.694087,0,0,0.694087,-230.131,-252.887)">
            <path d="M1021.58,900.512L680.679,900.512" style="fill:none;stroke:black;stroke-width:2.24px;"/>
            <path d="M995.533,892.428L703.583,892.428L703.536,756.947L1007.99,756.972L1008.04,891.95" style="fill:none;stroke:black;stroke-width:2.24px;"/>
            <path d="M703.623,769.465L751.381,769.433" style="fill:none;stroke:black;stroke-width:2.2px;"/>
            <path d="M751.381,769.433L751.477,877.641" style="fill:none;stroke:black;stroke-width:2.2px;"/>
            <path d="M751.38,769.496L799.67,769.398" style="fill:none;stroke:black;stroke-width:2.2px;"/>
            <path d="M799.67,769.398L799.572,756.521L799.865,879.539" style="fill:none;stroke:black;stroke-width:2.2px;"/>
            <path d="M799.67,769.398L996.487,769.368L799.67,769.398Z" style="fill:none;stroke:black;stroke-width:2.2px;"/>
            <path d="M738.661,818.391L738.599,834.499L738.661,818.391Z" style="fill:none;stroke:black;stroke-width:2.2px;"/>
            <path d="M763.51,818.453L763.448,834.499L763.51,818.453Z" style="fill:none;stroke:black;stroke-width:1px;"/>
            <path d="M763.51,818.453L763.448,834.499L763.51,818.453Z" style="fill:none;stroke:black;stroke-width:2.2px;"/>
            <g transform="matrix(1,0,0,1,-0.152431,-0.152431)">
                <path d="M815.179,866.601L815.179,878.271L815.179,866.601Z" style="fill:none;stroke:black;stroke-width:2.2px;"/>
            </g>
            <g transform="matrix(1,0,0,1,12.1469,0)">
                <path d="M815.179,866.601L815.179,878.271L815.179,866.601Z" style="fill:none;stroke:black;stroke-width:2.2px;"/>
            </g>
            <g transform="matrix(1,0,0,1,12.1469,-0.304862)">
                <path d="M815.179,866.601L815.179,878.271L815.179,866.601Z" style="fill:none;stroke:black;stroke-width:2.2px;"/>
            </g>
            <g transform="matrix(1,0,0,1,23.8174,-0.304862)">
                <path d="M815.179,866.601L815.179,878.271L815.179,866.601Z" style="fill:none;stroke:black;stroke-width:2.2px;"/>
            </g>
            <g transform="matrix(1,0,0,1,151.955,-85.5045)">
                <path d="M815.179,866.601L815.179,878.271L815.179,866.601Z" style="fill:none;stroke:black;stroke-width:1px;"/>
            </g>
            <g transform="matrix(1,0,0,1,164.102,-85.5045)">
                <path d="M815.179,866.601L815.179,878.271L815.179,866.601Z" style="fill:none;stroke:black;stroke-width:2.2px;"/>
            </g>
            <g transform="matrix(1,0,0,1,175.772,-85.5045)">
                <path d="M815.179,866.601L815.179,878.271L815.179,866.601Z" style="fill:none;stroke:black;stroke-width:2.2px;"/>
            </g>
            <g transform="matrix(1,0,0,1,151.955,-85.5045)">
                <path d="M815.179,866.601L815.179,878.271L815.179,866.601Z" style="fill:none;stroke:black;stroke-width:2.2px;"/>
            </g>
            <g transform="matrix(1.0375,0,0,1,-31.5341,0)">
                <path d="M825.996,788.959L816.023,803.971L831.009,803.971L821.154,818.952" style="fill:none;stroke:black;stroke-width:2.2px;"/>
            </g>
            <path d="M813.034,814.037L820.003,824.075L829.977,818.033" style="fill:none;stroke:black;stroke-width:2.24px;"/>
            <path d="M991.978,880.962L992.003,832.909L937.048,832.957L937.009,880.906L977.99,880.899" style="fill:none;stroke:black;stroke-width:2.24px;"/>
            <g transform="matrix(1.22581,0,0,1.27273,-204.538,-218.457)">
                <ellipse cx="894.925" cy="792.998" rx="6.048" ry="6.009" style="fill:none;stroke:black;stroke-width:1.79px;"/>
            </g>
            <g transform="matrix(1.2,0,0,1.20779,-131.651,-158.223)">
                <ellipse cx="894.925" cy="792.998" rx="6.048" ry="6.009" style="fill:none;stroke:black;stroke-width:1.86px;"/>
            </g>
            <g transform="matrix(1.21935,0,0,1.24026,-195.994,-154.312)">
                <ellipse cx="894.925" cy="792.998" rx="6.048" ry="6.009" style="fill:none;stroke:black;stroke-width:1.82px;"/>
            </g>
            <g transform="matrix(1.2,0,0,1.23377,-159.773,-108.408)">
                <ellipse cx="894.925" cy="792.998" rx="6.048" ry="6.009" style="fill:none;stroke:black;stroke-width:1.84px;"/>
            </g>
            <path d="M884.017,790.8L862.945,790.878L862.789,812.965L880.271,813.043L889.714,822.096" style="fill:none;stroke:black;stroke-width:2.24px;"/>
            <path d="M934.044,799.307L921.712,799.307L921.556,812.965L903.294,825.998" style="fill:none;stroke:black;stroke-width:2.24px;"/>
            <path d="M858.34,829.198L887.139,829.198" style="fill:none;stroke:black;stroke-width:2.24px;"/>
            <path d="M895.255,837.471L895.411,845.822L874.036,845.965L874.036,856.993" style="fill:none;stroke:black;stroke-width:2.24px;"/>
            <path d="M913.99,861.943L914.022,846.951L901.491,834.995" style="fill:none;stroke:black;stroke-width:2.24px;"/>
            <g transform="matrix(1.21935,0,0,1.2013,-217.752,-87.6706)">
                <ellipse cx="894.925" cy="792.998" rx="6.048" ry="6.009" style="fill:none;stroke:black;stroke-width:1.85px;"/>
            </g>
            <g transform="matrix(1.2,0,0,1.22727,-223.716,-143.189)">
                <ellipse cx="894.925" cy="792.998" rx="6.048" ry="6.009" style="fill:none;stroke:black;stroke-width:1.85px;"/>
            </g>
        </g>
    </g>
</svg>
